<svg xmlns="http://www.w3.org/2000/svg" xmlns:xlink="http://www.w3.org/1999/xlink" width="500" zoomAndPan="magnify" viewBox="0 0 375 374.999991" height="500" preserveAspectRatio="xMidYMid meet" version="1.0"><defs><clipPath id="df485daa74"><path d="M 49 164 L 328 164 L 328 337.5 L 49 337.5 Z M 49 164 " clip-rule="nonzero"/></clipPath></defs><path fill="#d3edea" d="M 91.214844 205.457031 C 91.761719 205.535156 92.3125 205.535156 92.859375 205.457031 C 93.390625 205.40625 93.898438 205.277344 94.386719 205.0625 C 94.871094 204.851562 95.3125 204.566406 95.710938 204.210938 C 96.105469 203.859375 96.433594 203.449219 96.699219 202.988281 C 96.960938 202.527344 97.148438 202.035156 97.253906 201.515625 C 97.355469 200.992188 97.378906 200.46875 97.3125 199.941406 C 97.25 199.414062 97.101562 198.910156 96.875 198.429688 C 96.648438 197.945312 96.351562 197.515625 95.984375 197.128906 C 95.617188 196.746094 95.199219 196.429688 94.730469 196.179688 C 93.089844 195.664062 91.480469 195.070312 89.898438 194.394531 C 88.316406 193.722656 86.773438 192.972656 85.265625 192.148438 C 83.757812 191.324219 82.292969 190.425781 80.871094 189.457031 C 79.453125 188.488281 78.082031 187.453125 76.765625 186.351562 C 75.449219 185.246094 74.1875 184.082031 72.984375 182.855469 C 71.78125 181.628906 70.640625 180.34375 69.5625 179.003906 C 68.484375 177.667969 67.472656 176.277344 66.53125 174.839844 C 65.59375 173.402344 64.722656 171.917969 63.929688 170.394531 C 63.132812 168.871094 62.414062 167.3125 61.769531 165.71875 C 61.128906 164.125 60.566406 162.503906 60.082031 160.855469 C 59.597656 159.203125 59.199219 157.535156 58.878906 155.847656 C 58.558594 154.15625 58.324219 152.457031 58.171875 150.746094 C 58.019531 149.03125 57.949219 147.316406 57.96875 145.597656 C 57.984375 143.878906 58.085938 142.164062 58.269531 140.457031 C 58.453125 138.746094 58.722656 137.050781 59.074219 135.371094 C 59.421875 133.6875 59.855469 132.027344 60.371094 130.386719 C 60.886719 128.746094 61.480469 127.132812 62.152344 125.554688 C 62.824219 123.972656 63.574219 122.425781 64.398438 120.917969 C 65.222656 119.410156 66.117188 117.945312 67.085938 116.527344 C 68.054688 115.105469 69.089844 113.734375 70.191406 112.417969 C 71.296875 111.097656 72.460938 109.835938 73.6875 108.632812 C 74.914062 107.429688 76.195312 106.289062 77.535156 105.210938 C 78.875 104.132812 80.261719 103.121094 81.699219 102.179688 C 83.136719 101.238281 84.617188 100.371094 86.140625 99.574219 C 87.664062 98.777344 89.222656 98.058594 90.820312 97.414062 C 92.414062 96.773438 94.035156 96.207031 95.683594 95.726562 C 97.332031 95.242188 99 94.839844 100.691406 94.519531 C 102.378906 94.199219 104.078125 93.964844 105.792969 93.8125 C 107.503906 93.65625 109.21875 93.589844 110.9375 93.605469 C 112.65625 93.621094 114.371094 93.722656 116.078125 93.90625 C 117.789062 94.089844 119.484375 94.355469 121.167969 94.707031 C 122.851562 95.058594 124.511719 95.488281 126.152344 96.003906 L 127.421875 96.003906 C 127.929688 96.019531 128.429688 95.960938 128.917969 95.820312 C 129.40625 95.683594 129.863281 95.472656 130.285156 95.191406 C 130.707031 94.90625 131.078125 94.566406 131.394531 94.171875 C 131.710938 93.773438 131.957031 93.335938 132.136719 92.863281 C 132.730469 91.171875 133.394531 89.507812 134.132812 87.875 C 134.867188 86.238281 135.667969 84.640625 136.539062 83.074219 C 137.410156 81.503906 138.347656 79.980469 139.347656 78.492188 C 140.347656 77.003906 141.40625 75.5625 142.53125 74.164062 C 143.652344 72.765625 144.832031 71.417969 146.066406 70.121094 C 147.304688 68.824219 148.589844 67.582031 149.933594 66.390625 C 151.273438 65.203125 152.664062 64.074219 154.101562 63.003906 C 155.539062 61.929688 157.015625 60.921875 158.539062 59.976562 C 160.0625 59.03125 161.621094 58.152344 163.21875 57.339844 C 164.816406 56.523438 166.445312 55.78125 168.105469 55.105469 C 169.761719 54.429688 171.449219 53.824219 173.160156 53.289062 C 174.871094 52.757812 176.601562 52.296875 178.351562 51.910156 C 180.101562 51.523438 181.863281 51.210938 183.640625 50.972656 C 185.417969 50.738281 187.199219 50.574219 188.992188 50.488281 C 190.78125 50.402344 192.570312 50.390625 194.363281 50.457031 C 196.152344 50.519531 197.9375 50.660156 199.71875 50.878906 C 201.496094 51.09375 203.265625 51.386719 205.019531 51.75 C 206.773438 52.117188 208.507812 52.554688 210.226562 53.066406 C 211.945312 53.582031 213.636719 54.164062 215.304688 54.820312 C 216.972656 55.476562 218.609375 56.203125 220.214844 56.996094 C 221.820312 57.792969 223.390625 58.652344 224.925781 59.582031 C 226.460938 60.507812 227.949219 61.5 229.402344 62.550781 C 230.851562 63.605469 232.253906 64.71875 233.609375 65.890625 C 234.964844 67.0625 236.269531 68.292969 237.519531 69.574219 C 238.769531 70.855469 239.964844 72.191406 241.105469 73.574219 C 242.242188 74.957031 243.320312 76.386719 244.339844 77.863281 C 245.355469 79.339844 246.3125 80.855469 247.199219 82.410156 C 248.089844 83.964844 248.910156 85.554688 249.667969 87.183594 C 250.421875 88.808594 251.105469 90.460938 251.71875 92.144531 C 252.335938 93.828125 252.878906 95.535156 253.347656 97.265625 C 253.816406 98.996094 254.214844 100.742188 254.535156 102.503906 C 254.859375 104.265625 255.105469 106.039062 255.277344 107.824219 C 255.339844 108.558594 255.554688 109.246094 255.921875 109.886719 C 256.289062 110.527344 256.773438 111.0625 257.375 111.488281 C 258.21875 112.027344 259.140625 112.304688 260.140625 112.3125 C 260.589844 112.386719 261.039062 112.386719 261.488281 112.3125 C 265.324219 111.210938 269.242188 110.664062 273.234375 110.667969 C 274.554688 110.683594 275.875 110.757812 277.191406 110.894531 C 278.503906 111.027344 279.8125 111.222656 281.109375 111.472656 C 282.40625 111.726562 283.691406 112.035156 284.960938 112.402344 C 286.230469 112.769531 287.484375 113.191406 288.714844 113.671875 C 289.949219 114.148438 291.15625 114.683594 292.339844 115.269531 C 293.523438 115.859375 294.679688 116.496094 295.808594 117.1875 C 296.933594 117.878906 298.027344 118.621094 299.089844 119.410156 C 300.148438 120.199219 301.171875 121.035156 302.15625 121.914062 C 303.144531 122.796875 304.085938 123.71875 304.992188 124.6875 C 305.894531 125.652344 306.75 126.65625 307.5625 127.699219 C 308.375 128.742188 309.140625 129.820312 309.855469 130.929688 C 310.574219 132.042969 311.238281 133.183594 311.851562 134.355469 C 312.464844 135.523438 313.027344 136.722656 313.53125 137.941406 C 314.039062 139.164062 314.488281 140.40625 314.882812 141.667969 C 315.277344 142.929688 315.617188 144.207031 315.898438 145.496094 C 316.179688 146.789062 316.398438 148.089844 316.5625 149.402344 C 316.726562 150.714844 316.832031 152.03125 316.878906 153.351562 C 316.921875 154.675781 316.910156 155.996094 316.835938 157.316406 C 316.765625 158.636719 316.632812 159.949219 316.441406 161.257812 C 316.25 162.566406 316 163.863281 315.695312 165.148438 C 315.386719 166.433594 315.023438 167.703125 314.601562 168.957031 C 314.179688 170.210938 313.703125 171.441406 313.171875 172.652344 C 312.640625 173.863281 312.058594 175.046875 311.417969 176.207031 C 310.78125 177.363281 310.09375 178.492188 309.355469 179.589844 C 308.617188 180.683594 307.828125 181.746094 306.996094 182.773438 C 306.160156 183.796875 305.28125 184.785156 304.359375 185.730469 C 303.4375 186.679688 302.472656 187.582031 301.472656 188.441406 C 300.46875 189.304688 299.425781 190.117188 298.351562 190.882812 C 297.273438 191.652344 296.164062 192.371094 295.023438 193.035156 C 293.882812 193.703125 292.714844 194.320312 291.519531 194.882812 C 290.320312 195.445312 289.101562 195.953125 287.859375 196.410156 C 286.617188 196.863281 285.359375 197.257812 284.082031 197.601562 C 283.5 197.746094 282.960938 197.992188 282.464844 198.335938 C 281.972656 198.679688 281.554688 199.101562 281.214844 199.597656 C 280.875 200.09375 280.632812 200.632812 280.492188 201.21875 C 280.347656 201.800781 280.3125 202.394531 280.386719 202.992188 C 280.460938 203.589844 280.636719 204.152344 280.917969 204.6875 C 281.199219 205.21875 281.5625 205.683594 282.011719 206.082031 C 282.464844 206.480469 282.96875 206.789062 283.53125 207.003906 C 284.09375 207.214844 284.675781 207.324219 285.277344 207.324219 L 286.476562 207.324219 C 288.042969 206.910156 289.585938 206.429688 291.109375 205.875 C 292.632812 205.324219 294.125 204.703125 295.59375 204.019531 C 297.0625 203.332031 298.496094 202.582031 299.894531 201.765625 C 301.292969 200.949219 302.652344 200.074219 303.976562 199.136719 C 305.296875 198.199219 306.570312 197.203125 307.804688 196.152344 C 309.035156 195.097656 310.214844 193.992188 311.347656 192.835938 C 312.480469 191.675781 313.558594 190.46875 314.582031 189.214844 C 315.605469 187.960938 316.570312 186.660156 317.480469 185.320312 C 318.386719 183.976562 319.230469 182.597656 320.015625 181.179688 C 320.796875 179.761719 321.515625 178.3125 322.167969 176.828125 C 322.820312 175.347656 323.40625 173.835938 323.921875 172.300781 C 324.441406 170.769531 324.886719 169.210938 325.265625 167.636719 C 325.644531 166.0625 325.949219 164.472656 326.183594 162.871094 C 326.417969 161.269531 326.582031 159.65625 326.671875 158.039062 C 326.761719 156.421875 326.78125 154.804688 326.726562 153.1875 C 326.667969 151.566406 326.542969 149.953125 326.34375 148.347656 C 326.140625 146.738281 325.871094 145.144531 325.527344 143.5625 C 325.183594 141.976562 324.769531 140.414062 324.285156 138.867188 C 323.800781 137.324219 323.25 135.800781 322.628906 134.304688 C 322.007812 132.808594 321.320312 131.34375 320.570312 129.910156 C 319.816406 128.472656 319.003906 127.078125 318.125 125.714844 C 317.246094 124.355469 316.308594 123.035156 315.3125 121.757812 C 314.316406 120.480469 313.265625 119.25 312.160156 118.066406 C 311.050781 116.886719 309.894531 115.753906 308.6875 114.675781 C 307.476562 113.597656 306.222656 112.574219 304.921875 111.609375 C 303.621094 110.644531 302.28125 109.738281 300.898438 108.890625 C 299.519531 108.046875 298.101562 107.265625 296.648438 106.546875 C 295.199219 105.828125 293.71875 105.175781 292.207031 104.589844 C 290.695312 104.007812 289.164062 103.488281 287.605469 103.042969 C 286.050781 102.59375 284.476562 102.21875 282.882812 101.914062 C 281.292969 101.605469 279.691406 101.371094 278.082031 101.210938 C 276.46875 101.046875 274.855469 100.957031 273.234375 100.941406 C 270.246094 100.933594 267.277344 101.183594 264.332031 101.691406 C 263.996094 99.757812 263.585938 97.839844 263.097656 95.941406 C 262.613281 94.039062 262.046875 92.164062 261.410156 90.308594 C 260.773438 88.453125 260.058594 86.628906 259.273438 84.828125 C 258.488281 83.03125 257.632812 81.269531 256.707031 79.539062 C 255.78125 77.808594 254.789062 76.121094 253.726562 74.472656 C 252.664062 72.824219 251.535156 71.21875 250.347656 69.660156 C 249.15625 68.101562 247.902344 66.59375 246.59375 65.132812 C 245.28125 63.675781 243.910156 62.273438 242.488281 60.925781 C 241.0625 59.574219 239.585938 58.285156 238.058594 57.054688 C 236.53125 55.828125 234.957031 54.660156 233.335938 53.554688 C 231.710938 52.453125 230.050781 51.414062 228.34375 50.445312 C 226.640625 49.476562 224.898438 48.574219 223.121094 47.746094 C 221.34375 46.914062 219.535156 46.15625 217.699219 45.472656 C 215.859375 44.785156 214 44.175781 212.113281 43.640625 C 210.226562 43.101562 208.320312 42.644531 206.394531 42.261719 C 204.472656 41.878906 202.535156 41.574219 200.585938 41.34375 C 198.640625 41.117188 196.683594 40.96875 194.722656 40.898438 C 192.765625 40.828125 190.804688 40.835938 188.84375 40.921875 C 186.886719 41.007812 184.933594 41.175781 182.984375 41.417969 C 181.039062 41.660156 179.105469 41.980469 177.183594 42.378906 C 175.265625 42.78125 173.363281 43.253906 171.480469 43.804688 C 169.597656 44.355469 167.742188 44.984375 165.90625 45.683594 C 164.074219 46.382812 162.273438 47.15625 160.503906 48 C 158.734375 48.84375 157 49.761719 155.304688 50.746094 C 153.605469 51.726562 151.953125 52.777344 150.339844 53.894531 C 148.726562 55.011719 147.160156 56.191406 145.644531 57.433594 C 144.125 58.675781 142.660156 59.976562 141.246094 61.339844 C 139.832031 62.699219 138.476562 64.113281 137.175781 65.582031 C 135.878906 67.050781 134.636719 68.570312 133.460938 70.136719 C 132.28125 71.707031 131.167969 73.320312 130.121094 74.976562 C 129.070312 76.636719 128.089844 78.332031 127.179688 80.070312 C 126.265625 81.804688 125.425781 83.578125 124.65625 85.378906 C 120.679688 84.578125 116.664062 84.175781 112.609375 84.183594 C 110.785156 84.175781 108.964844 84.25 107.148438 84.402344 C 105.332031 84.554688 103.523438 84.785156 101.726562 85.097656 C 99.929688 85.410156 98.148438 85.796875 96.386719 86.265625 C 94.625 86.734375 92.882812 87.277344 91.167969 87.898438 C 89.453125 88.515625 87.769531 89.210938 86.113281 89.976562 C 84.460938 90.746094 82.839844 91.585938 81.261719 92.492188 C 79.679688 93.402344 78.140625 94.378906 76.644531 95.425781 C 75.152344 96.46875 73.703125 97.578125 72.304688 98.75 C 70.90625 99.917969 69.5625 101.148438 68.273438 102.4375 C 66.984375 103.726562 65.753906 105.070312 64.578125 106.46875 C 63.40625 107.863281 62.296875 109.3125 61.253906 110.804688 C 60.207031 112.300781 59.230469 113.835938 58.316406 115.417969 C 57.40625 116.996094 56.566406 118.613281 55.796875 120.269531 C 55.027344 121.921875 54.332031 123.605469 53.710938 125.320312 C 53.089844 127.035156 52.546875 128.773438 52.078125 130.539062 C 51.609375 132.300781 51.21875 134.078125 50.90625 135.875 C 50.589844 137.671875 50.359375 139.480469 50.203125 141.296875 C 50.050781 143.117188 49.976562 144.9375 49.980469 146.761719 C 49.984375 148.582031 50.070312 150.402344 50.234375 152.21875 C 50.402344 154.035156 50.644531 155.84375 50.96875 157.636719 C 51.292969 159.433594 51.691406 161.210938 52.171875 162.96875 C 52.652344 164.730469 53.207031 166.464844 53.839844 168.175781 C 54.46875 169.886719 55.175781 171.566406 55.953125 173.21875 C 56.730469 174.867188 57.582031 176.476562 58.5 178.054688 C 59.421875 179.628906 60.410156 181.160156 61.464844 182.648438 C 62.519531 184.136719 63.636719 185.574219 64.816406 186.964844 C 65.996094 188.355469 67.234375 189.691406 68.535156 190.972656 C 69.832031 192.253906 71.183594 193.476562 72.585938 194.640625 C 73.992188 195.804688 75.445312 196.902344 76.945312 197.9375 C 78.449219 198.972656 79.992188 199.941406 81.578125 200.839844 C 83.164062 201.742188 84.789062 202.570312 86.445312 203.328125 C 88.105469 204.085938 89.792969 204.769531 91.511719 205.378906 Z M 91.214844 205.457031 " fill-opacity="1" fill-rule="nonzero"/><path fill="#d3edea" d="M 227.746094 250.941406 C 227.746094 249.660156 227.683594 248.382812 227.558594 247.105469 C 227.433594 245.832031 227.246094 244.566406 226.996094 243.308594 C 226.746094 242.050781 226.433594 240.808594 226.0625 239.582031 C 225.691406 238.355469 225.257812 237.152344 224.769531 235.96875 C 224.277344 234.785156 223.730469 233.628906 223.128906 232.496094 C 222.523438 231.367188 221.867188 230.269531 221.152344 229.203125 C 220.441406 228.136719 219.679688 227.109375 218.867188 226.121094 C 218.054688 225.128906 217.195312 224.179688 216.289062 223.273438 C 215.382812 222.367188 214.433594 221.507812 213.441406 220.695312 C 212.453125 219.882812 211.425781 219.121094 210.359375 218.410156 C 209.292969 217.695312 208.195312 217.039062 207.066406 216.433594 C 205.933594 215.832031 204.777344 215.28125 203.59375 214.792969 C 202.410156 214.300781 201.203125 213.871094 199.980469 213.5 C 198.753906 213.128906 197.511719 212.816406 196.253906 212.566406 C 194.996094 212.316406 193.730469 212.128906 192.457031 212.003906 C 191.179688 211.878906 189.902344 211.8125 188.621094 211.8125 C 187.339844 211.8125 186.0625 211.878906 184.785156 212.003906 C 183.511719 212.128906 182.242188 212.316406 180.988281 212.566406 C 179.730469 212.816406 178.488281 213.128906 177.261719 213.5 C 176.035156 213.871094 174.832031 214.300781 173.648438 214.792969 C 172.464844 215.28125 171.304688 215.832031 170.175781 216.433594 C 169.046875 217.039062 167.949219 217.695312 166.882812 218.410156 C 165.816406 219.121094 164.789062 219.882812 163.796875 220.695312 C 162.808594 221.507812 161.859375 222.367188 160.953125 223.273438 C 160.046875 224.179688 159.1875 225.128906 158.375 226.121094 C 157.5625 227.109375 156.800781 228.136719 156.085938 229.203125 C 155.375 230.269531 154.71875 231.367188 154.113281 232.496094 C 153.507812 233.628906 152.960938 234.785156 152.472656 235.96875 C 151.980469 237.152344 151.550781 238.355469 151.179688 239.582031 C 150.804688 240.808594 150.496094 242.050781 150.246094 243.308594 C 149.996094 244.566406 149.808594 245.832031 149.683594 247.105469 C 149.554688 248.382812 149.492188 249.660156 149.492188 250.941406 C 149.492188 252.222656 149.554688 253.5 149.683594 254.777344 C 149.808594 256.050781 149.996094 257.316406 150.246094 258.574219 C 150.496094 259.832031 150.804688 261.074219 151.179688 262.300781 C 151.550781 263.527344 151.980469 264.730469 152.472656 265.914062 C 152.960938 267.097656 153.507812 268.253906 154.113281 269.386719 C 154.71875 270.515625 155.375 271.613281 156.085938 272.679688 C 156.800781 273.746094 157.5625 274.773438 158.375 275.761719 C 159.1875 276.753906 160.046875 277.703125 160.953125 278.609375 C 161.859375 279.515625 162.808594 280.375 163.796875 281.1875 C 164.789062 282 165.816406 282.761719 166.882812 283.472656 C 167.949219 284.1875 169.046875 284.84375 170.175781 285.449219 C 171.304688 286.050781 172.464844 286.601562 173.648438 287.089844 C 174.832031 287.582031 176.035156 288.011719 177.261719 288.382812 C 178.488281 288.753906 179.730469 289.066406 180.988281 289.316406 C 182.242188 289.566406 183.511719 289.753906 184.785156 289.878906 C 186.0625 290.003906 187.339844 290.070312 188.621094 290.070312 C 189.902344 290.070312 191.179688 290.003906 192.457031 289.878906 C 193.730469 289.753906 194.996094 289.566406 196.253906 289.316406 C 197.511719 289.066406 198.753906 288.753906 199.980469 288.382812 C 201.203125 288.011719 202.410156 287.582031 203.59375 287.089844 C 204.777344 286.601562 205.933594 286.050781 207.066406 285.449219 C 208.195312 284.84375 209.292969 284.1875 210.359375 283.472656 C 211.425781 282.761719 212.453125 282 213.441406 281.1875 C 214.433594 280.375 215.382812 279.515625 216.289062 278.609375 C 217.195312 277.703125 218.054688 276.753906 218.867188 275.761719 C 219.679688 274.773438 220.441406 273.746094 221.152344 272.679688 C 221.867188 271.613281 222.523438 270.515625 223.128906 269.386719 C 223.730469 268.253906 224.277344 267.097656 224.769531 265.914062 C 225.257812 264.730469 225.691406 263.527344 226.0625 262.300781 C 226.433594 261.074219 226.746094 259.832031 226.996094 258.574219 C 227.246094 257.316406 227.433594 256.050781 227.558594 254.777344 C 227.683594 253.5 227.746094 252.222656 227.746094 250.941406 Z M 188.621094 279.894531 C 187.660156 279.894531 186.699219 279.851562 185.742188 279.761719 C 184.785156 279.667969 183.835938 279.527344 182.890625 279.34375 C 181.949219 279.160156 181.015625 278.925781 180.09375 278.648438 C 179.175781 278.375 178.269531 278.050781 177.378906 277.683594 C 176.492188 277.320312 175.621094 276.910156 174.773438 276.460938 C 173.925781 276.007812 173.101562 275.515625 172.300781 274.984375 C 171.5 274.449219 170.726562 273.878906 169.980469 273.269531 C 169.238281 272.664062 168.523438 272.019531 167.84375 271.339844 C 167.164062 270.660156 166.515625 269.949219 165.90625 269.207031 C 165.292969 268.464844 164.722656 267.695312 164.1875 266.898438 C 163.652344 266.097656 163.15625 265.273438 162.699219 264.425781 C 162.246094 263.582031 161.835938 262.710938 161.464844 261.824219 C 161.097656 260.9375 160.773438 260.03125 160.492188 259.113281 C 160.210938 258.195312 159.976562 257.261719 159.789062 256.320312 C 159.601562 255.375 159.457031 254.425781 159.363281 253.46875 C 159.269531 252.511719 159.21875 251.554688 159.21875 250.59375 C 159.21875 249.628906 159.265625 248.671875 159.359375 247.714844 C 159.453125 246.757812 159.59375 245.808594 159.777344 244.863281 C 159.964844 243.921875 160.199219 242.988281 160.476562 242.070312 C 160.757812 241.148438 161.078125 240.246094 161.445312 239.355469 C 161.8125 238.46875 162.226562 237.597656 162.675781 236.75 C 163.128906 235.902344 163.625 235.078125 164.15625 234.28125 C 164.691406 233.480469 165.265625 232.707031 165.875 231.964844 C 166.484375 231.222656 167.128906 230.511719 167.808594 229.832031 C 168.488281 229.152344 169.199219 228.503906 169.945312 227.894531 C 170.6875 227.285156 171.457031 226.714844 172.257812 226.179688 C 173.058594 225.644531 173.882812 225.152344 174.730469 224.699219 C 175.578125 224.246094 176.445312 223.835938 177.335938 223.46875 C 178.222656 223.101562 179.128906 222.777344 180.046875 222.5 C 180.96875 222.21875 181.898438 221.988281 182.84375 221.800781 C 183.785156 221.613281 184.734375 221.472656 185.691406 221.378906 C 186.648438 221.285156 187.609375 221.238281 188.570312 221.242188 C 189.53125 221.242188 190.492188 221.289062 191.449219 221.382812 C 192.40625 221.480469 193.355469 221.621094 194.296875 221.808594 C 195.242188 222 196.171875 222.234375 197.089844 222.511719 C 198.011719 222.792969 198.914062 223.117188 199.804688 223.488281 C 200.691406 223.855469 201.558594 224.269531 202.40625 224.722656 C 203.253906 225.175781 204.078125 225.671875 204.875 226.207031 C 205.671875 226.742188 206.445312 227.316406 207.1875 227.925781 C 207.929688 228.539062 208.640625 229.183594 209.316406 229.867188 C 209.996094 230.546875 210.640625 231.257812 211.25 232.003906 C 211.859375 232.75 212.429688 233.519531 212.960938 234.320312 C 213.492188 235.121094 213.984375 235.945312 214.4375 236.796875 C 214.890625 237.644531 215.296875 238.511719 215.664062 239.402344 C 216.03125 240.292969 216.351562 241.195312 216.628906 242.117188 C 216.90625 243.039062 217.136719 243.96875 217.324219 244.914062 C 217.507812 245.855469 217.644531 246.808594 217.738281 247.765625 C 217.832031 248.722656 217.875 249.679688 217.871094 250.640625 C 217.871094 251.597656 217.820312 252.554688 217.726562 253.507812 C 217.628906 254.460938 217.488281 255.40625 217.296875 256.34375 C 217.109375 257.28125 216.875 258.210938 216.597656 259.125 C 216.316406 260.039062 215.992188 260.941406 215.625 261.824219 C 215.257812 262.707031 214.847656 263.574219 214.394531 264.417969 C 213.945312 265.261719 213.453125 266.082031 212.917969 266.875 C 212.386719 267.671875 211.816406 268.4375 211.210938 269.179688 C 210.601562 269.917969 209.960938 270.628906 209.28125 271.304688 C 208.605469 271.980469 207.898438 272.625 207.15625 273.230469 C 206.417969 273.839844 205.648438 274.410156 204.855469 274.941406 C 204.058594 275.472656 203.238281 275.964844 202.394531 276.417969 C 201.550781 276.871094 200.6875 277.28125 199.804688 277.648438 C 198.917969 278.015625 198.019531 278.339844 197.105469 278.617188 C 196.1875 278.898438 195.261719 279.132812 194.320312 279.320312 C 193.382812 279.507812 192.4375 279.652344 191.484375 279.746094 C 190.53125 279.84375 189.578125 279.890625 188.621094 279.894531 Z M 188.621094 279.894531 " fill-opacity="1" fill-rule="nonzero"/><g clip-path="url(#df485daa74)"><path fill="#d3edea" d="M 322.460938 208.523438 C 322.136719 208.527344 321.820312 208.5625 321.503906 208.628906 C 321.1875 208.695312 320.878906 208.792969 320.582031 208.917969 C 320.285156 209.042969 320.003906 209.195312 319.734375 209.375 C 319.46875 209.558594 319.21875 209.761719 318.992188 209.988281 C 318.761719 210.21875 318.558594 210.464844 318.378906 210.734375 C 318.199219 211 318.042969 211.285156 317.917969 211.582031 C 317.792969 211.878906 317.695312 212.1875 317.628906 212.5 C 317.5625 212.816406 317.527344 213.136719 317.523438 213.460938 L 317.523438 246.003906 L 274.804688 246.003906 L 274.804688 242.488281 C 274.800781 241.816406 274.730469 241.15625 274.59375 240.5 C 274.460938 239.84375 274.261719 239.207031 274.003906 238.589844 C 273.742188 237.972656 273.425781 237.382812 273.050781 236.828125 C 272.675781 236.273438 272.253906 235.761719 271.777344 235.289062 C 271.300781 234.816406 270.785156 234.394531 270.226562 234.023438 C 269.667969 233.652344 269.082031 233.339844 268.460938 233.085938 C 267.839844 232.832031 267.203125 232.636719 266.546875 232.507812 C 265.890625 232.378906 265.226562 232.3125 264.554688 232.3125 L 253.109375 232.3125 C 253 232.292969 252.910156 232.242188 252.839844 232.15625 C 252.769531 232.074219 252.734375 231.976562 252.734375 231.863281 C 251.402344 227.378906 249.609375 223.089844 247.347656 218.996094 C 247.347656 218.996094 247.347656 218.472656 247.347656 218.398438 L 255.429688 210.242188 C 255.898438 209.769531 256.320312 209.25 256.691406 208.691406 C 257.0625 208.136719 257.375 207.546875 257.628906 206.925781 C 257.886719 206.308594 258.078125 205.671875 258.207031 205.011719 C 258.335938 204.355469 258.402344 203.695312 258.402344 203.023438 C 258.402344 202.355469 258.335938 201.691406 258.207031 201.035156 C 258.078125 200.375 257.886719 199.738281 257.628906 199.121094 C 257.375 198.5 257.0625 197.910156 256.691406 197.355469 C 256.320312 196.796875 255.898438 196.28125 255.429688 195.804688 L 243.683594 184.132812 C 243.203125 183.660156 242.683594 183.238281 242.125 182.867188 C 241.5625 182.496094 240.972656 182.183594 240.347656 181.925781 C 239.726562 181.671875 239.085938 181.476562 238.425781 181.347656 C 237.765625 181.21875 237.097656 181.152344 236.425781 181.152344 C 235.753906 181.152344 235.085938 181.21875 234.425781 181.347656 C 233.765625 181.476562 233.125 181.671875 232.503906 181.925781 C 231.882812 182.183594 231.289062 182.496094 230.726562 182.867188 C 230.167969 183.238281 229.648438 183.660156 229.167969 184.132812 L 221.089844 192.214844 L 220.492188 192.214844 C 216.382812 189.980469 212.09375 188.1875 207.625 186.828125 C 207.625 186.828125 207.175781 186.828125 207.175781 186.828125 L 207.175781 175.15625 C 207.175781 174.484375 207.109375 173.816406 206.976562 173.15625 C 206.847656 172.496094 206.652344 171.855469 206.394531 171.234375 C 206.136719 170.613281 205.820312 170.019531 205.445312 169.460938 C 205.074219 168.902344 204.648438 168.382812 204.171875 167.910156 C 203.695312 167.433594 203.179688 167.007812 202.617188 166.632812 C 202.058594 166.261719 201.46875 165.945312 200.847656 165.6875 C 200.226562 165.429688 199.585938 165.234375 198.925781 165.101562 C 198.265625 164.972656 197.597656 164.90625 196.925781 164.90625 L 180.242188 164.90625 C 179.570312 164.90625 178.90625 164.972656 178.246094 165.105469 C 177.589844 165.234375 176.949219 165.429688 176.332031 165.6875 C 175.710938 165.945312 175.121094 166.261719 174.566406 166.636719 C 174.007812 167.011719 173.492188 167.4375 173.019531 167.914062 C 172.546875 168.390625 172.125 168.90625 171.753906 169.46875 C 171.386719 170.027344 171.074219 170.617188 170.820312 171.238281 C 170.566406 171.859375 170.375 172.5 170.25 173.160156 C 170.121094 173.820312 170.0625 174.484375 170.066406 175.15625 L 170.066406 186.601562 C 170.066406 186.601562 170.066406 186.601562 169.617188 186.601562 C 165.144531 187.960938 160.855469 189.757812 156.75 191.988281 L 156.152344 191.988281 L 148.070312 184.132812 C 147.59375 183.660156 147.074219 183.238281 146.511719 182.867188 C 145.953125 182.496094 145.359375 182.183594 144.738281 181.925781 C 144.117188 181.671875 143.472656 181.476562 142.8125 181.347656 C 142.152344 181.21875 141.488281 181.152344 140.816406 181.152344 C 140.140625 181.152344 139.476562 181.21875 138.816406 181.347656 C 138.15625 181.476562 137.515625 181.671875 136.890625 181.925781 C 136.269531 182.183594 135.679688 182.496094 135.117188 182.867188 C 134.554688 183.238281 134.035156 183.660156 133.558594 184.132812 L 121.8125 195.878906 C 121.332031 196.347656 120.902344 196.863281 120.523438 197.417969 C 120.144531 197.972656 119.828125 198.5625 119.566406 199.183594 C 119.304688 199.800781 119.109375 200.441406 118.976562 201.101562 C 118.84375 201.761719 118.777344 202.425781 118.777344 203.097656 C 118.777344 203.769531 118.84375 204.4375 118.976562 205.097656 C 119.109375 205.753906 119.304688 206.394531 119.566406 207.015625 C 119.828125 207.632812 120.144531 208.222656 120.523438 208.777344 C 120.902344 209.335938 121.332031 209.847656 121.8125 210.316406 L 129.890625 218.472656 C 129.890625 218.472656 129.890625 218.847656 129.890625 219.070312 C 127.683594 223.171875 125.941406 227.460938 124.65625 231.9375 C 124.65625 231.9375 124.65625 232.386719 124.28125 232.386719 L 112.683594 232.386719 C 112.007812 232.367188 111.335938 232.414062 110.667969 232.53125 C 110 232.644531 109.347656 232.824219 108.71875 233.066406 C 108.085938 233.3125 107.484375 233.617188 106.910156 233.980469 C 106.339844 234.347656 105.8125 234.761719 105.324219 235.234375 C 104.835938 235.703125 104.398438 236.21875 104.015625 236.777344 C 103.628906 237.332031 103.300781 237.921875 103.035156 238.546875 C 102.769531 239.167969 102.566406 239.8125 102.425781 240.476562 C 102.289062 241.140625 102.214844 241.808594 102.210938 242.488281 L 102.210938 245.929688 L 59.71875 245.929688 L 59.71875 213.460938 C 59.71875 213.136719 59.6875 212.816406 59.621094 212.496094 C 59.558594 212.179688 59.464844 211.871094 59.34375 211.570312 C 59.21875 211.269531 59.066406 210.988281 58.886719 210.71875 C 58.707031 210.449219 58.5 210.199219 58.273438 209.96875 C 58.042969 209.738281 57.792969 209.535156 57.523438 209.355469 C 57.253906 209.175781 56.96875 209.023438 56.667969 208.898438 C 56.371094 208.773438 56.0625 208.679688 55.742188 208.617188 C 55.425781 208.554688 55.105469 208.523438 54.78125 208.523438 C 54.457031 208.523438 54.136719 208.554688 53.816406 208.617188 C 53.5 208.679688 53.191406 208.773438 52.890625 208.898438 C 52.589844 209.023438 52.304688 209.175781 52.035156 209.355469 C 51.765625 209.535156 51.519531 209.738281 51.289062 209.96875 C 51.058594 210.199219 50.855469 210.449219 50.675781 210.71875 C 50.496094 210.988281 50.34375 211.269531 50.21875 211.570312 C 50.09375 211.871094 50 212.179688 49.9375 212.496094 C 49.875 212.816406 49.84375 213.136719 49.84375 213.460938 L 49.84375 250.867188 C 49.84375 251.191406 49.875 251.511719 49.9375 251.828125 C 50 252.148438 50.09375 252.457031 50.21875 252.757812 C 50.34375 253.054688 50.496094 253.339844 50.675781 253.609375 C 50.855469 253.878906 51.058594 254.128906 51.289062 254.359375 C 51.519531 254.585938 51.765625 254.792969 52.035156 254.972656 C 52.304688 255.152344 52.589844 255.304688 52.890625 255.429688 C 53.191406 255.550781 53.5 255.644531 53.816406 255.710938 C 54.136719 255.773438 54.457031 255.804688 54.78125 255.804688 L 102.210938 255.804688 L 102.210938 259.171875 C 102.207031 259.855469 102.269531 260.535156 102.402344 261.207031 C 102.53125 261.882812 102.730469 262.535156 102.992188 263.167969 C 103.253906 263.800781 103.574219 264.402344 103.957031 264.972656 C 104.339844 265.542969 104.777344 266.066406 105.265625 266.546875 C 105.753906 267.027344 106.285156 267.457031 106.859375 267.832031 C 107.433594 268.207031 108.039062 268.519531 108.675781 268.773438 C 109.3125 269.027344 109.96875 269.214844 110.644531 269.335938 C 111.320312 269.457031 112 269.511719 112.683594 269.496094 L 124.132812 269.496094 C 124.132812 269.496094 124.132812 269.496094 124.507812 269.945312 C 125.863281 274.414062 127.660156 278.707031 129.890625 282.8125 C 129.890625 282.8125 129.890625 283.261719 129.890625 283.410156 L 121.8125 291.488281 C 121.332031 291.960938 120.902344 292.472656 120.523438 293.03125 C 120.144531 293.585938 119.828125 294.171875 119.566406 294.792969 C 119.304688 295.414062 119.109375 296.054688 118.976562 296.710938 C 118.84375 297.371094 118.777344 298.035156 118.777344 298.710938 C 118.777344 299.382812 118.84375 300.046875 118.976562 300.707031 C 119.109375 301.367188 119.304688 302.003906 119.566406 302.625 C 119.828125 303.246094 120.144531 303.832031 120.523438 304.390625 C 120.902344 304.945312 121.332031 305.457031 121.8125 305.929688 L 133.558594 317.75 C 134.550781 318.726562 135.699219 319.46875 137 319.976562 C 138.296875 320.484375 139.644531 320.714844 141.039062 320.667969 C 142.433594 320.707031 143.777344 320.472656 145.074219 319.964844 C 146.375 319.460938 147.523438 318.71875 148.519531 317.75 L 156.152344 309.820312 L 156.75 309.820312 C 160.839844 312.074219 165.128906 313.84375 169.617188 315.132812 C 169.617188 315.132812 170.066406 315.132812 170.066406 315.578125 L 170.066406 327.027344 C 170.066406 327.695312 170.132812 328.359375 170.261719 329.015625 C 170.390625 329.671875 170.585938 330.3125 170.839844 330.929688 C 171.09375 331.550781 171.40625 332.140625 171.777344 332.695312 C 172.148438 333.253906 172.570312 333.773438 173.042969 334.246094 C 173.515625 334.722656 174.027344 335.148438 174.582031 335.523438 C 175.136719 335.898438 175.726562 336.214844 176.34375 336.472656 C 176.960938 336.734375 177.597656 336.929688 178.253906 337.066406 C 178.910156 337.199219 179.570312 337.269531 180.242188 337.277344 L 196.925781 337.277344 C 197.59375 337.261719 198.257812 337.179688 198.910156 337.035156 C 199.566406 336.890625 200.199219 336.6875 200.8125 336.417969 C 201.425781 336.148438 202.007812 335.824219 202.558594 335.441406 C 203.109375 335.058594 203.617188 334.625 204.082031 334.140625 C 204.546875 333.660156 204.960938 333.136719 205.320312 332.574219 C 205.683594 332.011719 205.988281 331.417969 206.234375 330.792969 C 206.480469 330.171875 206.664062 329.527344 206.785156 328.871094 C 206.90625 328.210938 206.960938 327.546875 206.949219 326.875 L 206.949219 315.429688 C 207.097656 315.34375 207.25 315.34375 207.398438 315.429688 C 211.957031 314.011719 216.320312 312.144531 220.492188 309.820312 L 221.089844 309.820312 L 229.394531 317.75 C 230.386719 318.726562 231.535156 319.46875 232.835938 319.976562 C 234.132812 320.484375 235.480469 320.714844 236.875 320.667969 C 238.269531 320.707031 239.613281 320.472656 240.910156 319.964844 C 242.207031 319.460938 243.355469 318.71875 244.355469 317.75 L 256.101562 305.929688 C 256.574219 305.453125 256.996094 304.9375 257.363281 304.378906 C 257.734375 303.820312 258.046875 303.234375 258.304688 302.613281 C 258.558594 301.996094 258.75 301.355469 258.882812 300.699219 C 259.011719 300.042969 259.074219 299.378906 259.074219 298.710938 C 259.074219 298.039062 259.011719 297.375 258.882812 296.71875 C 258.75 296.0625 258.558594 295.425781 258.304688 294.804688 C 258.046875 294.1875 257.734375 293.597656 257.363281 293.039062 C 256.996094 292.480469 256.574219 291.964844 256.101562 291.488281 L 247.347656 283.410156 C 247.347656 283.410156 247.347656 282.960938 247.347656 282.8125 C 249.582031 278.707031 251.375 274.414062 252.734375 269.945312 C 252.734375 269.832031 252.769531 269.734375 252.839844 269.648438 C 252.910156 269.566406 253 269.511719 253.109375 269.496094 L 264.554688 269.496094 C 265.230469 269.496094 265.894531 269.429688 266.554688 269.296875 C 267.214844 269.167969 267.855469 268.972656 268.476562 268.714844 C 269.101562 268.457031 269.691406 268.140625 270.25 267.769531 C 270.808594 267.394531 271.328125 266.96875 271.804688 266.492188 C 272.277344 266.015625 272.703125 265.5 273.078125 264.941406 C 273.453125 264.378906 273.765625 263.789062 274.023438 263.167969 C 274.28125 262.546875 274.476562 261.90625 274.609375 261.246094 C 274.738281 260.585938 274.804688 259.917969 274.804688 259.246094 L 274.804688 255.878906 L 322.460938 255.878906 C 322.785156 255.875 323.101562 255.839844 323.417969 255.773438 C 323.734375 255.707031 324.042969 255.609375 324.339844 255.484375 C 324.636719 255.359375 324.917969 255.203125 325.1875 255.023438 C 325.453125 254.84375 325.703125 254.640625 325.929688 254.410156 C 326.160156 254.183594 326.363281 253.933594 326.542969 253.667969 C 326.722656 253.398438 326.878906 253.117188 327.003906 252.820312 C 327.128906 252.523438 327.226562 252.214844 327.292969 251.898438 C 327.359375 251.582031 327.394531 251.265625 327.398438 250.941406 L 327.398438 213.535156 C 327.398438 213.207031 327.367188 212.886719 327.304688 212.566406 C 327.242188 212.246094 327.148438 211.933594 327.023438 211.632812 C 326.902344 211.332031 326.75 211.046875 326.570312 210.773438 C 326.390625 210.5 326.1875 210.25 325.957031 210.015625 C 325.726562 209.785156 325.480469 209.578125 325.210938 209.394531 C 324.941406 209.210938 324.65625 209.054688 324.355469 208.925781 C 324.054688 208.796875 323.746094 208.699219 323.429688 208.632812 C 323.109375 208.5625 322.785156 208.527344 322.460938 208.523438 Z M 197.300781 315.429688 L 197.300781 326.875 L 180.242188 326.875 C 180.117188 326.949219 179.992188 326.949219 179.867188 326.875 L 179.867188 315.429688 C 179.863281 314.875 179.816406 314.324219 179.726562 313.777344 C 179.632812 313.230469 179.5 312.695312 179.320312 312.167969 C 179.144531 311.640625 178.925781 311.132812 178.664062 310.644531 C 178.40625 310.152344 178.109375 309.6875 177.773438 309.246094 C 177.4375 308.804688 177.070312 308.390625 176.667969 308.007812 C 176.265625 307.625 175.835938 307.277344 175.378906 306.964844 C 174.921875 306.648438 174.441406 306.375 173.9375 306.136719 C 173.4375 305.902344 172.917969 305.707031 172.386719 305.554688 C 168.574219 304.4375 164.933594 302.917969 161.464844 300.992188 C 159.867188 300.164062 158.171875 299.742188 156.375 299.71875 C 154.972656 299.660156 153.617188 299.890625 152.3125 300.410156 C 151.007812 300.933594 149.871094 301.699219 148.894531 302.710938 L 140.742188 310.792969 L 140.214844 310.792969 L 128.472656 298.972656 L 128.472656 298.449219 L 136.550781 290.367188 C 136.941406 289.972656 137.296875 289.550781 137.621094 289.097656 C 137.941406 288.648438 138.226562 288.171875 138.472656 287.675781 C 138.71875 287.175781 138.921875 286.664062 139.082031 286.132812 C 139.242188 285.601562 139.363281 285.058594 139.433594 284.507812 C 139.507812 283.960938 139.539062 283.40625 139.523438 282.851562 C 139.507812 282.296875 139.445312 281.746094 139.339844 281.203125 C 139.234375 280.65625 139.085938 280.125 138.894531 279.605469 C 138.703125 279.082031 138.46875 278.582031 138.195312 278.097656 C 136.300781 274.585938 134.78125 270.921875 133.632812 267.101562 C 133.488281 266.566406 133.296875 266.050781 133.066406 265.546875 C 132.835938 265.042969 132.566406 264.5625 132.257812 264.105469 C 131.949219 263.648438 131.601562 263.214844 131.222656 262.8125 C 130.84375 262.410156 130.433594 262.042969 129.996094 261.707031 C 129.554688 261.371094 129.089844 261.074219 128.601562 260.8125 C 128.113281 260.554688 127.609375 260.335938 127.085938 260.15625 C 126.5625 259.980469 126.027344 259.847656 125.480469 259.757812 C 124.933594 259.664062 124.386719 259.621094 123.832031 259.621094 L 112.683594 259.621094 L 112.3125 259.246094 L 112.3125 242.488281 C 112.4375 242.414062 112.5625 242.414062 112.683594 242.488281 L 124.132812 242.488281 C 124.683594 242.488281 125.234375 242.441406 125.78125 242.351562 C 126.324219 242.261719 126.859375 242.128906 127.382812 241.949219 C 127.910156 241.773438 128.414062 241.554688 128.902344 241.292969 C 129.390625 241.035156 129.855469 240.734375 130.292969 240.402344 C 130.734375 240.066406 131.144531 239.695312 131.523438 239.292969 C 131.902344 238.890625 132.246094 238.460938 132.554688 238.003906 C 132.867188 237.542969 133.136719 237.0625 133.367188 236.558594 C 133.597656 236.058594 133.785156 235.539062 133.933594 235.007812 C 135.082031 231.210938 136.601562 227.570312 138.496094 224.082031 C 138.769531 223.601562 139 223.097656 139.195312 222.578125 C 139.386719 222.058594 139.535156 221.523438 139.640625 220.980469 C 139.746094 220.433594 139.804688 219.882812 139.820312 219.328125 C 139.835938 218.773438 139.808594 218.222656 139.734375 217.671875 C 139.660156 217.121094 139.542969 216.582031 139.382812 216.050781 C 139.21875 215.519531 139.015625 215.003906 138.769531 214.507812 C 138.527344 214.007812 138.242188 213.535156 137.921875 213.082031 C 137.597656 212.632812 137.242188 212.207031 136.851562 211.8125 L 128.769531 203.660156 L 128.769531 203.136719 L 140.515625 191.390625 L 148.59375 199.46875 C 149.582031 200.464844 150.722656 201.222656 152.023438 201.746094 C 153.324219 202.265625 154.675781 202.503906 156.078125 202.460938 C 157.886719 202.449219 159.585938 202 161.164062 201.117188 C 164.65625 199.234375 168.296875 197.714844 172.085938 196.550781 C 172.617188 196.402344 173.136719 196.210938 173.636719 195.980469 C 174.136719 195.746094 174.617188 195.476562 175.074219 195.164062 C 175.53125 194.855469 175.960938 194.511719 176.359375 194.128906 C 176.761719 193.75 177.128906 193.34375 177.464844 192.902344 C 177.800781 192.464844 178.097656 192 178.359375 191.511719 C 178.621094 191.027344 178.839844 190.519531 179.019531 190 C 179.195312 189.476562 179.332031 188.941406 179.425781 188.398438 C 179.515625 187.851562 179.566406 187.304688 179.566406 186.75 L 179.566406 175.15625 C 179.566406 175.050781 179.605469 174.964844 179.679688 174.890625 C 179.75 174.816406 179.839844 174.78125 179.941406 174.78125 L 196.625 174.78125 L 197 175.15625 L 197 186.601562 C 197.007812 187.152344 197.058594 187.703125 197.152344 188.246094 C 197.246094 188.789062 197.382812 189.320312 197.5625 189.84375 C 197.742188 190.363281 197.960938 190.867188 198.222656 191.355469 C 198.484375 191.839844 198.78125 192.304688 199.117188 192.742188 C 199.453125 193.179688 199.820312 193.589844 200.21875 193.96875 C 200.621094 194.347656 201.046875 194.695312 201.503906 195.003906 C 201.960938 195.316406 202.4375 195.589844 202.9375 195.824219 C 203.4375 196.058594 203.949219 196.25 204.480469 196.402344 C 208.300781 197.550781 211.96875 199.070312 215.476562 200.964844 C 217.058594 201.851562 218.753906 202.300781 220.566406 202.3125 C 221.964844 202.351562 223.316406 202.109375 224.613281 201.589844 C 225.914062 201.070312 227.058594 200.3125 228.046875 199.320312 L 236.125 191.242188 L 247.871094 202.984375 L 247.871094 203.511719 L 239.792969 211.664062 C 239.402344 212.058594 239.050781 212.484375 238.726562 212.933594 C 238.40625 213.386719 238.125 213.859375 237.878906 214.359375 C 237.632812 214.855469 237.429688 215.367188 237.265625 215.898438 C 237.101562 216.425781 236.984375 216.964844 236.90625 217.515625 C 236.828125 218.0625 236.796875 218.617188 236.808594 219.167969 C 236.816406 219.722656 236.875 220.273438 236.972656 220.816406 C 237.070312 221.363281 237.214844 221.898438 237.398438 222.421875 C 237.582031 222.941406 237.808594 223.445312 238.070312 223.933594 C 240.214844 227.425781 241.9375 231.117188 243.234375 235.007812 C 243.386719 235.539062 243.582031 236.058594 243.816406 236.558594 C 244.054688 237.0625 244.328125 237.542969 244.640625 238 C 244.957031 238.457031 245.304688 238.886719 245.6875 239.289062 C 246.070312 239.6875 246.484375 240.058594 246.925781 240.394531 C 247.367188 240.726562 247.832031 241.023438 248.324219 241.285156 C 248.8125 241.546875 249.320312 241.765625 249.847656 241.941406 C 250.371094 242.121094 250.910156 242.253906 251.457031 242.347656 C 252.003906 242.4375 252.554688 242.484375 253.109375 242.488281 L 264.554688 242.488281 L 264.929688 242.863281 L 264.929688 259.542969 L 264.554688 259.917969 L 253.109375 259.917969 C 252.554688 259.921875 252.003906 259.96875 251.457031 260.058594 C 250.910156 260.152344 250.371094 260.285156 249.847656 260.464844 C 249.320312 260.640625 248.8125 260.863281 248.324219 261.121094 C 247.832031 261.382812 247.367188 261.679688 246.925781 262.015625 C 246.484375 262.347656 246.070312 262.71875 245.6875 263.117188 C 245.304688 263.519531 244.957031 263.949219 244.640625 264.40625 C 244.328125 264.863281 244.054688 265.34375 243.816406 265.847656 C 243.582031 266.347656 243.386719 266.867188 243.234375 267.398438 C 242.117188 271.234375 240.597656 274.898438 238.671875 278.398438 C 238.40625 278.882812 238.179688 279.390625 237.996094 279.910156 C 237.8125 280.433594 237.671875 280.96875 237.570312 281.511719 C 237.472656 282.058594 237.417969 282.609375 237.40625 283.164062 C 237.394531 283.714844 237.425781 284.269531 237.503906 284.816406 C 237.582031 285.367188 237.703125 285.90625 237.863281 286.433594 C 238.027344 286.964844 238.230469 287.476562 238.476562 287.972656 C 238.722656 288.472656 239.003906 288.945312 239.328125 289.398438 C 239.648438 289.847656 240.003906 290.273438 240.390625 290.667969 L 248.472656 298.746094 L 248.472656 299.269531 L 236.875 310.792969 L 236.125 310.792969 L 228.046875 302.710938 C 227.070312 301.703125 225.929688 300.9375 224.625 300.417969 C 223.320312 299.898438 221.96875 299.664062 220.566406 299.71875 C 218.769531 299.742188 217.074219 300.164062 215.476562 300.992188 C 211.980469 302.917969 208.316406 304.4375 204.480469 305.554688 C 203.4375 305.894531 202.472656 306.386719 201.585938 307.03125 C 200.699219 307.675781 199.933594 308.441406 199.289062 309.328125 C 198.644531 310.214844 198.152344 311.179688 197.8125 312.222656 C 197.472656 313.265625 197.300781 314.332031 197.300781 315.429688 Z M 197.300781 315.429688 " fill-opacity="1" fill-rule="nonzero"/></g></svg>