<svg xmlns="http://www.w3.org/2000/svg" xmlns:xlink="http://www.w3.org/1999/xlink" width="500" zoomAndPan="magnify" viewBox="0 0 375 374.999991" height="500" preserveAspectRatio="xMidYMid meet" version="1.0"><defs><clipPath id="6fced50215"><path d="M 68.945312 68.46875 L 317 68.46875 L 317 317.46875 L 68.945312 317.46875 Z M 68.945312 68.46875 " clip-rule="nonzero"/></clipPath></defs><g clip-path="url(#6fced50215)"><path fill="#26f7b2" d="M 238.65625 130.722656 L 160.46875 68.542969 L 160.46875 114.910156 C 156.386719 114.257812 152.203125 113.914062 147.941406 113.914062 C 104.382812 113.914062 68.945312 149.351562 68.945312 192.910156 C 68.945312 236.472656 104.382812 271.910156 147.941406 271.910156 C 152.203125 271.910156 156.386719 271.566406 160.46875 270.914062 L 160.46875 317.28125 L 316.84375 192.914062 Z M 91.957031 192.910156 C 91.957031 162.042969 117.070312 136.925781 147.941406 136.925781 C 178.808594 136.925781 203.921875 162.042969 203.921875 192.910156 C 203.921875 223.78125 178.808594 248.894531 147.941406 248.894531 C 117.070312 248.894531 91.957031 223.78125 91.957031 192.910156 Z M 91.957031 192.910156 " fill-opacity="1" fill-rule="nonzero"/></g></svg>