<svg xmlns="http://www.w3.org/2000/svg" xmlns:xlink="http://www.w3.org/1999/xlink" width="500" zoomAndPan="magnify" viewBox="0 0 375 374.999991" height="500" preserveAspectRatio="xMidYMid meet" version="1.0"><defs><clipPath id="cd23bdb951"><path d="M 72.4375 49.496094 L 302.6875 49.496094 L 302.6875 325.496094 L 72.4375 325.496094 Z M 72.4375 49.496094 " clip-rule="nonzero"/></clipPath></defs><g clip-path="url(#cd23bdb951)"><path fill="#d3edea" d="M 187.5 49.496094 C 123.019531 49.496094 72.5 72.230469 72.5 101.246094 L 72.5 273.746094 C 72.5 302.757812 123.019531 325.496094 187.5 325.496094 C 251.980469 325.496094 302.5 302.757812 302.5 273.746094 L 302.5 101.246094 C 302.5 72.230469 251.980469 49.496094 187.5 49.496094 Z M 291 216.246094 C 291 235.277344 248.496094 256.496094 187.5 256.496094 C 126.503906 256.496094 84 235.277344 84 216.246094 L 84 181.539062 C 102.433594 198.808594 141.324219 210.496094 187.5 210.496094 C 233.671875 210.496094 272.5625 198.808594 291 181.539062 Z M 291 158.746094 C 291 177.777344 248.496094 198.996094 187.5 198.996094 C 126.503906 198.996094 84 177.777344 84 158.746094 L 84 124.039062 C 102.433594 141.308594 141.324219 152.996094 187.5 152.996094 C 233.671875 152.996094 272.5625 141.308594 291 124.039062 Z M 187.5 60.996094 C 248.496094 60.996094 291 82.210938 291 101.246094 C 291 120.277344 248.496094 141.496094 187.5 141.496094 C 126.503906 141.496094 84 120.277344 84 101.246094 C 84 82.210938 126.503906 60.996094 187.5 60.996094 Z M 187.5 313.996094 C 126.503906 313.996094 84 292.777344 84 273.746094 L 84 239.039062 C 102.433594 256.308594 141.324219 267.996094 187.5 267.996094 C 233.671875 267.996094 272.5625 256.308594 291 239.039062 L 291 273.746094 C 291 292.777344 248.496094 313.996094 187.5 313.996094 Z M 187.5 313.996094 " fill-opacity="1" fill-rule="nonzero"/></g></svg>