<svg xmlns="http://www.w3.org/2000/svg" xmlns:xlink="http://www.w3.org/1999/xlink" width="500" zoomAndPan="magnify" viewBox="0 0 375 374.999991" height="500" preserveAspectRatio="xMidYMid meet" version="1.0"><defs><clipPath id="7ef4db215c"><path d="M 29 95.765625 L 346 95.765625 L 346 279 L 29 279 Z M 29 95.765625 " clip-rule="nonzero"/></clipPath></defs><g clip-path="url(#7ef4db215c)"><path fill="#26f7b2" d="M 337.597656 278.773438 L 37.394531 278.773438 C 36.847656 278.773438 36.304688 278.71875 35.769531 278.613281 C 35.230469 278.507812 34.710938 278.347656 34.203125 278.140625 C 33.699219 277.929688 33.21875 277.671875 32.761719 277.367188 C 32.308594 277.066406 31.886719 276.71875 31.5 276.332031 C 31.113281 275.945312 30.765625 275.523438 30.460938 275.066406 C 30.160156 274.613281 29.902344 274.132812 29.691406 273.625 C 29.480469 273.121094 29.324219 272.597656 29.21875 272.0625 C 29.109375 271.523438 29.058594 270.984375 29.058594 270.433594 C 29.058594 269.886719 29.109375 269.34375 29.21875 268.808594 C 29.324219 268.269531 29.480469 267.75 29.691406 267.242188 C 29.902344 266.738281 30.160156 266.257812 30.460938 265.800781 C 30.765625 265.347656 31.113281 264.925781 31.5 264.539062 C 31.886719 264.152344 32.308594 263.804688 32.761719 263.5 C 33.21875 263.199219 33.699219 262.941406 34.203125 262.730469 C 34.710938 262.519531 35.230469 262.363281 35.769531 262.257812 C 36.304688 262.148438 36.847656 262.097656 37.394531 262.097656 L 337.597656 262.097656 C 338.144531 262.097656 338.6875 262.148438 339.226562 262.257812 C 339.761719 262.363281 340.285156 262.519531 340.789062 262.730469 C 341.296875 262.941406 341.777344 263.199219 342.230469 263.5 C 342.6875 263.804688 343.109375 264.152344 343.496094 264.539062 C 343.882812 264.925781 344.226562 265.347656 344.53125 265.800781 C 344.835938 266.257812 345.09375 266.738281 345.300781 267.242188 C 345.511719 267.75 345.671875 268.269531 345.777344 268.808594 C 345.882812 269.34375 345.9375 269.886719 345.9375 270.433594 C 345.9375 270.984375 345.882812 271.523438 345.777344 272.0625 C 345.671875 272.597656 345.511719 273.121094 345.300781 273.625 C 345.09375 274.132812 344.835938 274.613281 344.53125 275.066406 C 344.226562 275.523438 343.882812 275.945312 343.496094 276.332031 C 343.109375 276.71875 342.6875 277.066406 342.230469 277.367188 C 341.777344 277.671875 341.296875 277.929688 340.789062 278.140625 C 340.285156 278.347656 339.761719 278.507812 339.226562 278.613281 C 338.6875 278.71875 338.144531 278.773438 337.597656 278.773438 Z M 337.597656 195.601562 L 37.394531 195.601562 C 36.847656 195.601562 36.304688 195.546875 35.769531 195.441406 C 35.230469 195.335938 34.710938 195.175781 34.203125 194.964844 C 33.699219 194.757812 33.21875 194.5 32.761719 194.195312 C 32.308594 193.890625 31.886719 193.546875 31.5 193.160156 C 31.113281 192.773438 30.765625 192.351562 30.460938 191.894531 C 30.160156 191.441406 29.902344 190.960938 29.691406 190.453125 C 29.480469 189.949219 29.324219 189.425781 29.21875 188.890625 C 29.109375 188.351562 29.058594 187.808594 29.058594 187.261719 C 29.058594 186.714844 29.109375 186.171875 29.21875 185.636719 C 29.324219 185.097656 29.480469 184.578125 29.691406 184.070312 C 29.902344 183.566406 30.160156 183.085938 30.460938 182.628906 C 30.765625 182.175781 31.113281 181.753906 31.5 181.367188 C 31.886719 180.980469 32.308594 180.632812 32.761719 180.328125 C 33.21875 180.023438 33.699219 179.769531 34.203125 179.558594 C 34.710938 179.347656 35.230469 179.191406 35.769531 179.082031 C 36.304688 178.976562 36.847656 178.921875 37.394531 178.921875 L 337.597656 178.921875 C 338.144531 178.921875 338.6875 178.976562 339.226562 179.082031 C 339.761719 179.191406 340.285156 179.347656 340.789062 179.558594 C 341.296875 179.769531 341.777344 180.023438 342.230469 180.328125 C 342.6875 180.632812 343.109375 180.980469 343.496094 181.367188 C 343.882812 181.753906 344.226562 182.175781 344.53125 182.628906 C 344.835938 183.085938 345.09375 183.566406 345.300781 184.070312 C 345.511719 184.578125 345.671875 185.097656 345.777344 185.636719 C 345.882812 186.171875 345.9375 186.714844 345.9375 187.261719 C 345.9375 187.808594 345.882812 188.351562 345.777344 188.890625 C 345.671875 189.425781 345.511719 189.949219 345.300781 190.453125 C 345.09375 190.960938 344.835938 191.441406 344.53125 191.894531 C 344.226562 192.351562 343.882812 192.773438 343.496094 193.160156 C 343.109375 193.546875 342.6875 193.890625 342.230469 194.195312 C 341.777344 194.5 341.296875 194.757812 340.789062 194.964844 C 340.285156 195.175781 339.761719 195.335938 339.226562 195.441406 C 338.6875 195.546875 338.144531 195.601562 337.597656 195.601562 Z M 337.597656 112.445312 L 37.394531 112.445312 C 36.847656 112.445312 36.304688 112.390625 35.769531 112.285156 C 35.230469 112.179688 34.710938 112.019531 34.203125 111.808594 C 33.699219 111.601562 33.21875 111.34375 32.761719 111.039062 C 32.308594 110.734375 31.886719 110.390625 31.5 110.003906 C 31.113281 109.617188 30.765625 109.195312 30.460938 108.738281 C 30.160156 108.285156 29.902344 107.804688 29.691406 107.296875 C 29.480469 106.792969 29.324219 106.269531 29.21875 105.734375 C 29.109375 105.195312 29.058594 104.652344 29.058594 104.105469 C 29.058594 103.558594 29.109375 103.015625 29.21875 102.480469 C 29.324219 101.941406 29.480469 101.421875 29.691406 100.914062 C 29.902344 100.410156 30.160156 99.929688 30.460938 99.472656 C 30.765625 99.019531 31.113281 98.597656 31.5 98.210938 C 31.886719 97.824219 32.308594 97.476562 32.761719 97.171875 C 33.21875 96.867188 33.699219 96.613281 34.203125 96.402344 C 34.710938 96.191406 35.230469 96.035156 35.769531 95.925781 C 36.304688 95.820312 36.847656 95.765625 37.394531 95.765625 L 337.597656 95.765625 C 338.144531 95.765625 338.6875 95.820312 339.226562 95.925781 C 339.761719 96.035156 340.285156 96.191406 340.789062 96.402344 C 341.296875 96.613281 341.777344 96.867188 342.230469 97.171875 C 342.6875 97.476562 343.109375 97.824219 343.496094 98.210938 C 343.882812 98.597656 344.226562 99.019531 344.53125 99.472656 C 344.835938 99.929688 345.09375 100.410156 345.300781 100.914062 C 345.511719 101.421875 345.671875 101.941406 345.777344 102.480469 C 345.882812 103.015625 345.9375 103.558594 345.9375 104.105469 C 345.9375 104.652344 345.882812 105.195312 345.777344 105.734375 C 345.671875 106.269531 345.511719 106.792969 345.300781 107.296875 C 345.09375 107.804688 344.835938 108.285156 344.53125 108.738281 C 344.226562 109.195312 343.882812 109.617188 343.496094 110.003906 C 343.109375 110.390625 342.6875 110.734375 342.230469 111.039062 C 341.777344 111.34375 341.296875 111.601562 340.789062 111.808594 C 340.285156 112.019531 339.761719 112.179688 339.226562 112.285156 C 338.6875 112.390625 338.144531 112.445312 337.597656 112.445312 Z M 337.597656 112.445312 " fill-opacity="1" fill-rule="nonzero"/></g></svg>