<svg xmlns="http://www.w3.org/2000/svg" xmlns:xlink="http://www.w3.org/1999/xlink" width="500" zoomAndPan="magnify" viewBox="0 0 375 374.999991" height="500" preserveAspectRatio="xMidYMid meet" version="1.0"><defs><clipPath id="4fdeb6e2cf"><path d="M 52.175781 70 L 322.925781 70 L 322.925781 305 L 52.175781 305 Z M 52.175781 70 " clip-rule="nonzero"/></clipPath></defs><path fill="#d3edea" d="M 211.664062 187.28125 C 211.664062 174.339844 200.847656 163.847656 187.5 163.847656 C 174.152344 163.847656 163.332031 174.339844 163.332031 187.28125 C 163.332031 200.222656 174.152344 210.714844 187.5 210.714844 C 200.847656 210.714844 211.664062 200.222656 211.664062 187.28125 Z M 211.664062 187.28125 " fill-opacity="1" fill-rule="nonzero"/><g clip-path="url(#4fdeb6e2cf)"><path fill="#d3edea" d="M 265.988281 143.777344 C 271.09375 123.667969 277.507812 86.382812 254.890625 73.738281 C 232.382812 61.152344 203.089844 85.269531 187.625 99.75 C 172.203125 85.414062 142.085938 61.398438 119.492188 74.082031 C 96.992188 86.710938 103.929688 123.382812 109.144531 143.617188 C 88.15625 149.394531 52.175781 161.84375 52.175781 187.28125 C 52.175781 212.644531 88.117188 226.191406 108.984375 231.964844 C 103.746094 252.3125 97.15625 288.457031 119.6875 301.058594 C 142.367188 313.738281 172.386719 290.292969 187.996094 275.660156 C 203.566406 290.222656 232.574219 313.816406 255.089844 301.183594 C 277.671875 288.503906 271.792969 251.71875 266.574219 231.367188 C 286.800781 225.578125 322.820312 212.328125 322.820312 187.28125 C 322.820312 162.089844 286.648438 149.539062 265.988281 143.777344 Z M 263.425781 220.582031 C 260 210.066406 255.375 198.886719 249.71875 187.335938 C 255.117188 176.058594 259.5625 165.023438 262.890625 154.578125 C 278.035156 158.835938 311.257812 168.566406 311.257812 187.28125 C 311.257812 206.171875 279.378906 215.996094 263.425781 220.582031 Z M 249.296875 291.480469 C 232.496094 300.90625 207.542969 278.339844 196.046875 267.617188 C 203.675781 259.53125 211.296875 250.128906 218.734375 239.6875 C 231.820312 238.5625 244.179688 236.722656 255.390625 234.210938 C 259.0625 248.605469 266.167969 282.011719 249.296875 291.480469 Z M 125.464844 291.347656 C 108.664062 281.953125 116.34375 249.699219 120.195312 234.710938 C 131.28125 237.089844 143.550781 238.800781 156.667969 239.832031 C 164.152344 250.046875 171.996094 259.4375 179.898438 267.660156 C 170.132812 276.820312 142.339844 300.78125 125.464844 291.347656 Z M 63.738281 187.28125 C 63.738281 168.320312 96.761719 158.660156 112.25 154.414062 C 115.636719 165.09375 120.082031 176.261719 125.441406 187.554688 C 120.011719 199.015625 115.503906 210.359375 112.085938 221.167969 C 97.316406 217.066406 63.738281 206.253906 63.738281 187.28125 Z M 125.285156 83.785156 C 142.152344 74.316406 168.324219 97.371094 179.523438 107.75 C 171.660156 115.9375 163.890625 125.253906 156.46875 135.414062 C 143.738281 136.558594 131.554688 138.394531 120.351562 140.855469 C 116.148438 124.535156 108.433594 93.242188 125.285156 83.785156 Z M 227.007812 147.597656 C 235.640625 148.652344 243.914062 150.058594 251.683594 151.777344 C 249.351562 159.027344 246.445312 166.605469 243.019531 174.375 C 238.058594 165.246094 232.730469 156.296875 227.007812 147.597656 Z M 187.628906 115.761719 C 192.960938 121.363281 198.300781 127.617188 203.554688 134.402344 C 192.898438 133.914062 182.222656 133.910156 171.566406 134.394531 C 176.824219 127.671875 182.210938 121.425781 187.628906 115.761719 Z M 132.074219 174.367188 C 128.707031 166.625 125.828125 159.011719 123.476562 151.660156 C 131.195312 149.984375 139.433594 148.617188 148.011719 147.578125 C 142.269531 156.257812 136.953125 165.203125 132.074219 174.367188 Z M 148.257812 227.785156 C 139.394531 226.828125 131.035156 225.527344 123.316406 223.898438 C 125.703125 216.417969 128.648438 208.640625 132.089844 200.730469 C 137.03125 209.992188 142.429688 219.019531 148.257812 227.785156 Z M 187.949219 259.59375 C 182.46875 253.859375 177 247.519531 171.664062 240.699219 C 182.382812 241.105469 193.121094 241.109375 203.835938 240.644531 C 198.566406 247.589844 193.242188 253.9375 187.949219 259.59375 Z M 243.132812 200.328125 C 246.75 208.324219 249.796875 216.058594 252.21875 223.414062 C 244.371094 225.148438 235.898438 226.546875 226.972656 227.585938 C 232.742188 218.71875 238.152344 209.632812 243.132812 200.328125 Z M 212.28125 228.945312 C 195.890625 230.078125 179.394531 230.066406 162.992188 229.039062 C 153.675781 215.839844 145.378906 201.960938 138.21875 187.550781 C 145.347656 173.171875 153.582031 159.320312 162.855469 146.140625 C 179.265625 144.941406 195.777344 144.9375 212.1875 146.148438 C 221.382812 159.324219 229.605469 173.140625 236.898438 187.390625 C 229.691406 201.761719 221.414062 215.644531 212.28125 228.945312 Z M 249.117188 83.449219 C 265.992188 92.886719 258.480469 126.398438 254.792969 140.972656 C 243.566406 138.457031 231.371094 136.589844 218.605469 135.425781 C 211.167969 125.160156 203.464844 115.824219 195.730469 107.742188 C 207.070312 97.144531 232.40625 74.105469 249.117188 83.449219 Z M 249.117188 83.449219 " fill-opacity="1" fill-rule="evenodd"/></g></svg>